<?xml version="1.0" encoding="iso-8859-1"?>
<!-- Generator: Adobe Illustrator 19.0.1, SVG Export Plug-In . SVG Version: 6.00 Build 0)  -->
<svg version="1.1" xmlns="http://www.w3.org/2000/svg" xmlns:xlink="http://www.w3.org/1999/xlink" x="0px" y="0px"
	 viewBox="0 0 128 128" style="enable-background:new 0 0 128 128;" xml:space="preserve">
<g id="_x33_">
	<path id="_x3C_Path_x3E__3_" style="fill:#3D3D3D;" d="M125.357,47.009L98.41,29.424c-1.31-0.856-2.866-1.141-4.396-0.817
		c-1.517,0.311-2.827,1.206-3.683,2.516l-5.226,8.014l-0.298-6.925c-0.143-3.216-2.853-5.732-6.082-5.576l-32.148,1.375
		c-1.556,0.065-2.996,0.739-4.046,1.893c-1.05,1.141-1.595,2.633-1.53,4.189l0.169,3.864l-4.902-6.536
		c-0.934-1.258-2.295-2.062-3.839-2.282c-1.556-0.22-3.086,0.169-4.331,1.102L2.343,49.525c-1.258,0.934-2.062,2.295-2.282,3.839
		c-0.22,1.543,0.169,3.086,1.102,4.331l30.955,41.342c0.934,1.245,2.295,2.062,3.839,2.282c0.285,0.039,0.571,0.052,0.843,0.052
		c1.258,0,2.464-0.402,3.488-1.154l12.125-9.078l23.187-0.999l15.16,9.895c0.96,0.622,2.049,0.947,3.177,0.947
		c0.402,0,0.804-0.039,1.206-0.117c1.53-0.324,2.84-1.219,3.683-2.529l28.231-43.248C128.807,52.391,128.055,48.772,125.357,47.009z
		 M37.953,97.091c-0.415,0.311-0.934,0.441-1.439,0.376c-0.519-0.078-0.973-0.35-1.284-0.765L4.275,55.36
		c-0.311-0.415-0.441-0.921-0.363-1.439s0.337-0.973,0.752-1.284l25.767-19.283c0.35-0.259,0.752-0.389,1.154-0.389
		c0.597,0,1.18,0.272,1.569,0.778l8.313,11.101l1.751,40.849c0.091,2.218,1.426,4.098,3.294,4.993L37.953,97.091z M57.911,87.015
		l-6.899,0.298l-1.88,0.078c-1.05,0.039-1.984-0.791-2.023-1.867l-1.517-35.169l-0.285-6.873l-0.415-9.557
		c-0.026-0.519,0.156-1.012,0.506-1.401c0.35-0.376,0.83-0.597,1.349-0.622l32.148-1.388h0.091c1.024,0,1.893,0.817,1.932,1.867
		l0.532,12.358L65.056,69.858L62.8,73.321l-0.687,1.05c-1.025,1.569-1.193,3.449-0.623,5.096c0.402,1.18,1.193,2.243,2.321,2.983
		l0.104,0.065l6.082,3.981L57.911,87.015z M123.801,52.961L95.57,96.209c-0.584,0.895-1.79,1.154-2.684,0.571L82.2,89.803
		l-5.524-3.605l-9.609-6.264l-1.128-0.739c-0.908-0.584-1.154-1.79-0.571-2.697l2.153-3.294l14.213-21.786l3.657-5.602l8.196-12.566
		c0.285-0.441,0.726-0.739,1.232-0.843c0.506-0.104,1.025,0,1.465,0.272l26.948,17.585
		C124.125,50.847,124.385,52.066,123.801,52.961z M20.384,64.03c0.681-5.622,7.988-4.46,7.988-4.46s0.618-7.372,6.233-6.686
		c9.286,1.126,3.724,19.39,3.724,19.39S19.258,73.316,20.384,64.03z M14.569,58.358c0,0,2.225-7.306-1.489-7.756
		c-2.246-0.274-2.493,2.675-2.493,2.675s-2.923-0.465-3.195,1.784C6.941,58.775,14.569,58.358,14.569,58.358z M63.509,46.424
		c0,0-13.876,10.625-7.569,16.407c2.806,2.576,5.92,0.47,7.366-0.815c-0.245,1.658-0.872,4.223-2.537,5.837l0.056,1.305l7.309-0.321
		l-0.056-1.305c-1.792-1.454-2.643-3.956-3.03-5.59c1.57,1.163,4.839,2.981,7.405,0.174C78.246,55.82,63.509,46.424,63.509,46.424z
		 M55.871,40.543c-1.026,1.123-2.334,0.396-2.962-0.07c0.155,0.654,0.495,1.654,1.212,2.236l0.022,0.522l-2.924,0.128l-0.022-0.522
		c0.666-0.646,0.917-1.672,1.015-2.335c-0.579,0.514-1.824,1.356-2.947,0.326c-2.523-2.313,3.028-6.563,3.028-6.563
		S58.188,38.024,55.871,40.543z M102.064,72.385c-1.508,2.311-4.771,2.87-7.271,1.239c-1.385-0.903-2.25-2.291-2.482-3.731
		c-0.492,1.501-0.88,3.455-0.401,5.219l-0.698,1.076l-6.086-3.96l0.708-1.086c1.802-0.267,3.435-1.401,4.615-2.46
		c-1.411,0.363-3.026,0.12-4.411-0.772c-2.51-1.641-3.311-4.837-1.793-7.158c1.508-2.311,4.761-2.86,7.261-1.229
		c0.368,0.246,0.706,0.522,0.994,0.827c-0.275-1.25-0.076-2.563,0.642-3.669c1.518-2.321,4.761-2.87,7.271-1.239
		c2.5,1.631,3.311,4.837,1.803,7.148c-0.708,1.076-1.782,1.775-3.001,2.04c-0.03,0.02-0.071,0.029-0.111,0.029
		c0.04,0.011,0.07,0.021,0.11,0.042c0.36,0.135,0.709,0.321,1.048,0.537C102.761,66.868,103.572,70.074,102.064,72.385z
		 M99.655,43.55c-0.603,0.924-1.908,1.148-2.908,0.496c-0.554-0.361-0.9-0.916-0.993-1.492c-0.197,0.6-0.352,1.382-0.161,2.088
		l-0.279,0.43l-2.434-1.584l0.283-0.434c0.721-0.107,1.374-0.56,1.846-0.984c-0.565,0.145-1.21,0.048-1.764-0.309
		c-1.004-0.656-1.325-1.935-0.717-2.863c0.603-0.924,1.904-1.144,2.904-0.492c0.147,0.098,0.283,0.209,0.397,0.331
		c-0.11-0.5-0.031-1.025,0.257-1.468c0.607-0.928,1.904-1.148,2.908-0.496c1,0.652,1.325,1.935,0.721,2.859
		c-0.283,0.43-0.713,0.71-1.201,0.816c-0.012,0.008-0.028,0.012-0.044,0.011c0.016,0.004,0.028,0.008,0.044,0.017
		c0.144,0.054,0.284,0.128,0.419,0.215C99.933,41.344,100.258,42.626,99.655,43.55z M89.309,85.851
		c0.603-0.924,1.908-1.148,2.908-0.496c0.554,0.361,0.9,0.916,0.993,1.492c0.197-0.6,0.352-1.382,0.161-2.088l0.279-0.43
		l2.434,1.584l-0.283,0.434c-0.721,0.107-1.374,0.56-1.846,0.984c0.565-0.145,1.21-0.048,1.764,0.309
		c1.004,0.656,1.324,1.935,0.717,2.863c-0.603,0.924-1.904,1.144-2.904,0.492c-0.147-0.098-0.283-0.209-0.397-0.331
		c0.11,0.5,0.031,1.025-0.257,1.468c-0.607,0.928-1.904,1.148-2.908,0.496c-1-0.652-1.325-1.935-0.721-2.859
		c0.283-0.43,0.713-0.71,1.201-0.816c0.012-0.008,0.028-0.012,0.044-0.011c-0.016-0.004-0.028-0.008-0.044-0.017
		c-0.144-0.054-0.284-0.128-0.419-0.215C89.03,88.057,88.706,86.775,89.309,85.851z"/>
</g>
<g id="Layer_1">
</g>
</svg>
